<svg xmlns="http://www.w3.org/2000/svg" width="63.18" height="63.193" viewBox="0 0 63.18 63.193">
  <g id="noun_emoji_321661" transform="translate(0.006 -0.012)">
    <path id="Tracé_846" data-name="Tracé 846" d="M31.584.012a31.6,31.6,0,1,0,31.59,31.6A31.628,31.628,0,0,0,31.584.012Zm0,3a28.6,28.6,0,1,1-28.59,28.6A28.625,28.625,0,0,1,31.584,3.012ZM21.072,19.682a3.641,3.641,0,1,0,3.641,3.639A3.639,3.639,0,0,0,21.072,19.682Zm20.93,0a3.641,3.641,0,1,0,3.639,3.639A3.639,3.639,0,0,0,42,19.682ZM29.313,37.289A11.691,11.691,0,0,0,17.7,49.031a1.5,1.5,0,0,0,3,0,8.687,8.687,0,0,1,8.611-8.742h5.055a8.655,8.655,0,0,1,8.611,8.678,1.5,1.5,0,1,0,3,0A11.658,11.658,0,0,0,34.367,37.289Z" fill="#a0a0a0" fill-rule="evenodd"/>
  </g>
</svg>
