<svg xmlns="http://www.w3.org/2000/svg" viewBox="0 0 16 17">
  <g id="noun_Calendar_697507" transform="translate(-8 -6)">
    <g id="Group_32327" data-name="Group 32327" transform="translate(8 6)">
      <path id="Path_868" data-name="Path 868" d="M12.364,958.362a.4.4,0,0,0-.4.4v2.179a.4.4,0,0,0,.792,0v-2.179A.4.4,0,0,0,12.364,958.362Zm7.924,0a.4.4,0,0,0-.4.4v2.179a.4.4,0,0,0,.792,0v-2.179A.4.4,0,0,0,20.288,958.362Zm-10.7,1.585A1.588,1.588,0,0,0,8,961.538v3.56H24.64v-3.56a1.588,1.588,0,0,0-1.591-1.591H21.081v1.405a1.585,1.585,0,1,1-1.585,0v-1.405H13.151v1.4a1.584,1.584,0,1,1-1.585.006v-1.405Zm2.773,1.981a.792.792,0,1,0,.792.792A.786.786,0,0,0,12.364,961.928Zm7.924,0a.792.792,0,1,0,.792.792A.786.786,0,0,0,20.288,961.928ZM8,965.89V974.2a1.588,1.588,0,0,0,1.591,1.591H23.049A1.588,1.588,0,0,0,24.64,974.2V965.89Z" transform="translate(-8 -958.362)" fill="#e2e2e2"/>
    </g>
  </g>
</svg>
