<svg xmlns="http://www.w3.org/2000/svg" width="63.18" height="63.193" viewBox="0 0 63.18 63.193">
  <path id="Tracé_845" data-name="Tracé 845" d="M31.586.012a31.6,31.6,0,1,0,31.59,31.6A31.628,31.628,0,0,0,31.586.012Zm0,3A28.6,28.6,0,1,1,3,31.607,28.625,28.625,0,0,1,31.586,3.012ZM21.074,19.682a3.641,3.641,0,1,0,3.641,3.639A3.639,3.639,0,0,0,21.074,19.682Zm20.93,0a3.641,3.641,0,1,0,3.639,3.639A3.639,3.639,0,0,0,42,19.682ZM19.2,37.318a1.5,1.5,0,0,0-1.5,1.5A11.557,11.557,0,0,0,29.314,50.293h5.055A11.353,11.353,0,0,0,45.98,38.959a1.5,1.5,0,0,0-3,0,8.386,8.386,0,0,1-8.611,8.334H29.314A8.453,8.453,0,0,1,20.7,38.818,1.5,1.5,0,0,0,19.2,37.318Z" transform="translate(0.004 -0.012)" fill="#a0a0a0" fill-rule="evenodd"/>
</svg>
