<svg xmlns="http://www.w3.org/2000/svg" width="658.496" height="654.64" viewBox="0 0 658.496 654.64">
  <path id="Tracé_844" data-name="Tracé 844" d="M1300.393,550.315c20.7,3.76,40.447,5.676,59.2,11.029,100.031,28.555,165.078,122.063,157.831,225.5-7.1,101.358-85.129,184.862-187.024,199.82a221.027,221.027,0,0,1-31.794,2.208q-214.642.214-429.285.1H862.2L861,987.29Q968.832,880.021,1077.02,772.4c-16.915-2.564-32.995-4.02-48.61-7.527-89.46-20.1-157.759-96.684-167.582-187.207C846.548,446.1,947,334.576,1080.234,334.424q213.446-.247,426.891-.038h8.361l.753,1.964Q1408.3,443.347,1300.393,550.315Zm-2.446,220.543V552.892c-3.129-.152-5.727-.387-8.322-.387-67.273-.022-134.543.111-201.813-.19-7.582-.035-9.191,2.364-9.166,9.415.242,66.86.138,133.724.16,200.584,0,2.783.252,5.562.4,8.545Z" transform="translate(-859.475 -334.339)" fill="#fff"/>
</svg>
