<svg id="Component_18_50" data-name="Component 18 – 50" xmlns="http://www.w3.org/2000/svg" viewBox="0 0 19.335 33.328">
  <path id="Path_849" data-name="Path 849" d="M3315.541,1498h-10.924a2.627,2.627,0,0,0-2.617,2.617v9.9a2.627,2.627,0,0,0,2.617,2.617h10.924a2.627,2.627,0,0,0,2.617-2.617v-9.9A2.624,2.624,0,0,0,3315.541,1498Zm-3.711,1.522h1.908a.51.51,0,0,1,.509.509v11.576a.51.51,0,0,1-.509.509h-1.908a.51.51,0,0,1-.509-.509v-11.576A.51.51,0,0,1,3311.83,1499.522Zm1.4,1.018h-.894V1511.1h.894Zm-6.808-1.018h1.908a.51.51,0,0,1,.509.509v11.576a.51.51,0,0,1-.509.509h-1.908a.51.51,0,0,1-.509-.509v-11.576A.51.51,0,0,1,3306.42,1499.522Zm1.4,1.018h-.89V1511.1h.89Z" transform="translate(-3300.411 -1498)" fill="#b1bdf7"/>
  <path id="Path_850" data-name="Path 850" d="M2986.826,5214h-18.317a.51.51,0,0,0-.509.509v1.908a.51.51,0,0,0,.509.509h18.317a.51.51,0,0,0,.509-.509v-1.908A.509.509,0,0,0,2986.826,5214Z" transform="translate(-2968 -5196.32)" fill="#b1bdf7"/>
  <path id="Path_851" data-name="Path 851" d="M3376,6083v11.514h1.208V6083Z" transform="translate(-3374.059 -6061.186)" fill="#b1bdf7"/>
  <path id="Path_852" data-name="Path 852" d="M6370,6083v11.514h1.209V6083Z" transform="translate(-6353.814 -6061.186)" fill="#b1bdf7"/>
</svg>