<svg id="Component_17_28" data-name="Component 17 – 28" xmlns="http://www.w3.org/2000/svg" width="17.925" height="18.933" viewBox="0 0 17.925 18.933">
  <path id="Path_855" data-name="Path 855" d="M8.792,19.58H6.218a1.981,1.981,0,0,1-1.931-2.028V5.381A1.981,1.981,0,0,1,6.218,3.352H8.792a.66.66,0,0,0,.644-.676A.66.66,0,0,0,8.792,2H6.218A3.3,3.3,0,0,0,3,5.381V17.552a3.3,3.3,0,0,0,3.218,3.381H8.792a.677.677,0,0,0,0-1.352Z" transform="translate(-3 -2)" fill="#e2e2e2"/>
  <path id="Path_856" data-name="Path 856" d="M21.657,13.11,17.8,9.287a.646.646,0,1,0-.907.92l2.7,2.69H8.644a.644.644,0,1,0,0,1.287h11l-2.767,2.69a.642.642,0,0,0,.907.907l3.861-3.765a.63.63,0,0,0,.013-.907Z" transform="translate(-3.918 -4.075)" fill="#e2e2e2"/>
</svg>
